<svg width="1440" height="204" viewBox="0 0 1440 204" fill="none" xmlns="http://www.w3.org/2000/svg">
<path d="M136.465 158H45.4645L28.1045 200H-18.3755L68.9845 3.99999H113.785L201.425 200H153.825L136.465 158ZM122.185 123.56L91.1045 48.52L60.0245 123.56H122.185ZM365.68 98.08C376.88 101.627 385.653 107.6 392 116C398.346 124.213 401.52 134.387 401.52 146.52C401.52 163.693 394.8 176.947 381.36 186.28C368.106 195.427 348.693 200 323.12 200H221.76V3.99999H317.52C341.413 3.99999 359.706 8.57332 372.4 17.72C385.28 26.8667 391.72 39.28 391.72 54.96C391.72 64.48 389.386 72.9733 384.72 80.44C380.24 87.9067 373.893 93.7867 365.68 98.08ZM266.84 38.16V84.36H311.92C323.12 84.36 331.613 82.4 337.4 78.48C343.186 74.56 346.08 68.7733 346.08 61.12C346.08 53.4667 343.186 47.7733 337.4 44.04C331.613 40.12 323.12 38.16 311.92 38.16H266.84ZM319.76 165.84C331.706 165.84 340.666 163.88 346.64 159.96C352.8 156.04 355.88 149.973 355.88 141.76C355.88 125.52 343.84 117.4 319.76 117.4H266.84V165.84H319.76ZM530.781 203.36C510.434 203.36 492.048 198.973 475.621 190.2C459.381 181.427 446.594 169.387 437.261 154.08C428.114 138.587 423.541 121.227 423.541 102C423.541 82.7733 428.114 65.5067 437.261 50.2C446.594 34.7067 459.381 22.5733 475.621 13.8C492.048 5.02666 510.434 0.639997 530.781 0.639997C551.128 0.639997 569.421 5.02666 585.661 13.8C601.901 22.5733 614.688 34.7067 624.021 50.2C633.354 65.5067 638.021 82.7733 638.021 102C638.021 121.227 633.354 138.587 624.021 154.08C614.688 169.387 601.901 181.427 585.661 190.2C569.421 198.973 551.128 203.36 530.781 203.36ZM530.781 164.72C542.354 164.72 552.808 162.107 562.141 156.88C571.474 151.467 578.754 144 583.981 134.48C589.394 124.96 592.101 114.133 592.101 102C592.101 89.8667 589.394 79.04 583.981 69.52C578.754 60 571.474 52.6267 562.141 47.4C552.808 41.9867 542.354 39.28 530.781 39.28C519.208 39.28 508.754 41.9867 499.421 47.4C490.088 52.6267 482.714 60 477.301 69.52C472.074 79.04 469.461 89.8667 469.461 102C469.461 114.133 472.074 124.96 477.301 134.48C482.714 144 490.088 151.467 499.421 156.88C508.754 162.107 519.208 164.72 530.781 164.72ZM759.191 203.36C731.191 203.36 709.351 195.613 693.671 180.12C678.178 164.627 670.431 142.507 670.431 113.76V3.99999H715.791V112.08C715.791 147.173 730.351 164.72 759.471 164.72C773.658 164.72 784.484 160.52 791.951 152.12C799.418 143.533 803.151 130.187 803.151 112.08V3.99999H847.951V113.76C847.951 142.507 840.111 164.627 824.431 180.12C808.938 195.613 787.191 203.36 759.191 203.36ZM930.094 40.96H867.374V3.99999H1038.17V40.96H975.454V200H930.094V40.96ZM1228.96 203.36C1200.96 203.36 1179.12 195.613 1163.44 180.12C1147.94 164.627 1140.2 142.507 1140.2 113.76V3.99999H1185.56V112.08C1185.56 147.173 1200.12 164.72 1229.24 164.72C1243.42 164.72 1254.25 160.52 1261.72 152.12C1269.18 143.533 1272.92 130.187 1272.92 112.08V3.99999H1317.72V113.76C1317.72 142.507 1309.88 164.627 1294.2 180.12C1278.7 195.613 1256.96 203.36 1228.96 203.36ZM1426.94 203.36C1411.45 203.36 1396.42 201.307 1381.86 197.2C1367.49 192.907 1355.91 187.4 1347.14 180.68L1362.54 146.52C1370.94 152.68 1380.93 157.627 1392.5 161.36C1404.07 165.093 1415.65 166.96 1427.22 166.96C1440.1 166.96 1449.62 165.093 1455.78 161.36C1461.94 157.44 1465.02 152.307 1465.02 145.96C1465.02 141.293 1463.15 137.467 1459.42 134.48C1455.87 131.307 1451.21 128.787 1445.42 126.92C1439.82 125.053 1432.17 123 1422.46 120.76C1407.53 117.213 1395.3 113.667 1385.78 110.12C1376.26 106.573 1368.05 100.88 1361.14 93.04C1354.42 85.2 1351.06 74.7467 1351.06 61.68C1351.06 50.2933 1354.14 40.0267 1360.3 30.88C1366.46 21.5467 1375.7 14.1733 1388.02 8.75999C1400.53 3.34666 1415.74 0.639997 1433.66 0.639997C1446.17 0.639997 1458.39 2.13333 1470.34 5.11999C1482.29 8.10666 1492.74 12.4 1501.7 18L1487.7 52.44C1469.59 42.1733 1451.49 37.04 1433.38 37.04C1420.69 37.04 1411.26 39.0933 1405.1 43.2C1399.13 47.3067 1396.14 52.72 1396.14 59.44C1396.14 66.16 1399.59 71.2 1406.5 74.56C1413.59 77.7333 1424.33 80.9067 1438.7 84.08C1453.63 87.6267 1465.86 91.1733 1475.38 94.72C1484.9 98.2667 1493.02 103.867 1499.74 111.52C1506.65 119.173 1510.1 129.533 1510.1 142.6C1510.1 153.8 1506.93 164.067 1500.58 173.4C1494.42 182.547 1485.09 189.827 1472.58 195.24C1460.07 200.653 1444.86 203.36 1426.94 203.36Z" fill="#F8F8F8"/>
</svg>
