<svg width="1440" height="204" viewBox="0 0 1440 204" fill="none" xmlns="http://www.w3.org/2000/svg">
<path d="M108.187 98.08C119.387 101.627 128.161 107.6 134.507 116C140.854 124.213 144.027 134.387 144.027 146.52C144.027 163.693 137.307 176.947 123.867 186.28C110.614 195.427 91.2007 200 65.6274 200H-35.7327V3.99999H60.0273C83.9207 3.99999 102.214 8.57332 114.907 17.72C127.787 26.8667 134.227 39.28 134.227 54.96C134.227 64.48 131.894 72.9733 127.227 80.44C122.747 87.9067 116.401 93.7867 108.187 98.08ZM9.34735 38.16V84.36H54.4274C65.6274 84.36 74.1207 82.4 79.9073 78.48C85.694 74.56 88.5873 68.7733 88.5873 61.12C88.5873 53.4667 85.694 47.7733 79.9073 44.04C74.1207 40.12 65.6274 38.16 54.4274 38.16H9.34735ZM62.2674 165.84C74.214 165.84 83.174 163.88 89.1474 159.96C95.3074 156.04 98.3874 149.973 98.3874 141.76C98.3874 125.52 86.3474 117.4 62.2674 117.4H9.34735V165.84H62.2674ZM265.449 203.36C237.449 203.36 215.609 195.613 199.929 180.12C184.436 164.627 176.689 142.507 176.689 113.76V3.99999H222.049V112.08C222.049 147.173 236.609 164.72 265.729 164.72C279.916 164.72 290.742 160.52 298.209 152.12C305.676 143.533 309.409 130.187 309.409 112.08V3.99999H354.209V113.76C354.209 142.507 346.369 164.627 330.689 180.12C315.196 195.613 293.449 203.36 265.449 203.36ZM490.379 130.56V200H445.019V130L369.139 3.99999H417.299L469.659 91.08L522.019 3.99999H566.539L490.379 130.56ZM758.614 203.36C738.641 203.36 720.534 199.067 704.294 190.48C688.241 181.707 675.548 169.667 666.214 154.36C657.068 138.867 652.494 121.413 652.494 102C652.494 82.5867 657.068 65.2267 666.214 49.92C675.548 34.4267 688.241 22.3867 704.294 13.8C720.534 5.02666 738.734 0.639997 758.894 0.639997C775.881 0.639997 791.188 3.62666 804.814 9.6C818.628 15.5733 830.201 24.16 839.534 35.36L810.414 62.24C797.161 46.9333 780.734 39.28 761.134 39.28C749.001 39.28 738.174 41.9867 728.654 47.4C719.134 52.6267 711.668 60 706.254 69.52C701.028 79.04 698.414 89.8667 698.414 102C698.414 114.133 701.028 124.96 706.254 134.48C711.668 144 719.134 151.467 728.654 156.88C738.174 162.107 749.001 164.72 761.134 164.72C780.734 164.72 797.161 156.973 810.414 141.48L839.534 168.36C830.201 179.747 818.628 188.427 804.814 194.4C791.001 200.373 775.601 203.36 758.614 203.36ZM960.984 203.36C940.638 203.36 922.251 198.973 905.824 190.2C889.584 181.427 876.798 169.387 867.464 154.08C858.318 138.587 853.744 121.227 853.744 102C853.744 82.7733 858.318 65.5067 867.464 50.2C876.798 34.7067 889.584 22.5733 905.824 13.8C922.251 5.02666 940.638 0.639997 960.984 0.639997C981.331 0.639997 999.624 5.02666 1015.86 13.8C1032.1 22.5733 1044.89 34.7067 1054.22 50.2C1063.56 65.5067 1068.22 82.7733 1068.22 102C1068.22 121.227 1063.56 138.587 1054.22 154.08C1044.89 169.387 1032.1 181.427 1015.86 190.2C999.624 198.973 981.331 203.36 960.984 203.36ZM960.984 164.72C972.558 164.72 983.011 162.107 992.344 156.88C1001.68 151.467 1008.96 144 1014.18 134.48C1019.6 124.96 1022.3 114.133 1022.3 102C1022.3 89.8667 1019.6 79.04 1014.18 69.52C1008.96 60 1001.68 52.6267 992.344 47.4C983.011 41.9867 972.558 39.28 960.984 39.28C949.411 39.28 938.958 41.9867 929.624 47.4C920.291 52.6267 912.918 60 907.504 69.52C902.278 79.04 899.664 89.8667 899.664 102C899.664 114.133 902.278 124.96 907.504 134.48C912.918 144 920.291 151.467 929.624 156.88C938.958 162.107 949.411 164.72 960.984 164.72ZM1196.11 203.36C1176.14 203.36 1158.03 199.067 1141.79 190.48C1125.74 181.707 1113.05 169.667 1103.71 154.36C1094.57 138.867 1089.99 121.413 1089.99 102C1089.99 82.5867 1094.57 65.2267 1103.71 49.92C1113.05 34.4267 1125.74 22.3867 1141.79 13.8C1158.03 5.02666 1176.23 0.639997 1196.39 0.639997C1213.38 0.639997 1228.69 3.62666 1242.31 9.6C1256.13 15.5733 1267.7 24.16 1277.03 35.36L1247.91 62.24C1234.66 46.9333 1218.23 39.28 1198.63 39.28C1186.5 39.28 1175.67 41.9867 1166.15 47.4C1156.63 52.6267 1149.17 60 1143.75 69.52C1138.53 79.04 1135.91 89.8667 1135.91 102C1135.91 114.133 1138.53 124.96 1143.75 134.48C1149.17 144 1156.63 151.467 1166.15 156.88C1175.67 162.107 1186.5 164.72 1198.63 164.72C1218.23 164.72 1234.66 156.973 1247.91 141.48L1277.03 168.36C1267.7 179.747 1256.13 188.427 1242.31 194.4C1228.5 200.373 1213.1 203.36 1196.11 203.36ZM1432.92 158H1341.92L1324.56 200H1278.08L1365.44 3.99999H1410.24L1497.88 200H1450.28L1432.92 158ZM1418.64 123.56L1387.56 48.52L1356.48 123.56H1418.64Z" fill="#D31519"/>
</svg>
