<svg width="1440" height="451" viewBox="0 0 1440 451" fill="none" xmlns="http://www.w3.org/2000/svg">
<path d="M721.96 6.29997C721.573 18.6733 708.04 37.04 681.36 61.4C632.253 106.64 582.76 129.26 532.88 129.26C518.96 129.26 507.553 128.487 498.66 126.94C487.447 125.007 469.467 116.693 444.72 102C365.84 55.6 315.187 32.4 292.76 32.4C281.16 32.4 275.36 34.9133 275.36 39.94C275.36 42.26 275.747 45.9333 276.52 50.96C277.68 55.9867 278.26 59.66 278.26 61.98C278.26 90.5933 268.013 118.047 247.52 144.34C225.867 172.18 201.12 186.1 173.28 186.1L150.66 179.72L141.96 159.42C141.96 135.833 152.98 110.12 175.02 82.28C197.447 54.44 220.067 36.2666 242.88 27.76C235.147 24.6666 229.927 23.12 227.22 23.12C191.26 23.12 150.853 48.2533 106 98.52C72.7467 135.64 44.1333 176.82 20.16 222.06C-8.06666 274.647 -22.18 316.6 -22.18 347.92C-22.18 388.133 -7.09999 408.24 23.06 408.24C52.8333 408.24 81.06 392 107.74 359.52C132.873 328.587 145.44 297.847 145.44 267.3C145.44 262.66 143.7 258.02 140.22 253.38C136.74 248.74 132.873 246.42 128.62 246.42C122.047 246.42 112.187 253.38 99.04 267.3L97.88 267.88C92.8533 275.613 86.6667 292.24 79.32 317.76C70.04 322.013 60.18 327.813 49.74 335.16L21.9 354.88H20.74C19.9667 350.24 19.58 347.34 19.58 346.18C19.58 314.473 27.8933 286.44 44.52 262.08C63.08 234.24 87.44 220.32 117.6 220.32C147.76 220.32 162.84 234.433 162.84 262.66C162.84 305.967 145.633 346.953 111.22 385.62C76.0333 425.447 37.1733 445.36 -5.36 445.36C-66.84 445.36 -97.58 418.1 -97.58 363.58C-97.58 314.087 -78.44 258.987 -40.16 198.28C-6.52 144.92 32.5333 100.26 77 64.3C129.587 21.7666 178.693 0.499979 224.32 0.499979C229.733 0.499979 237.273 2.23998 246.94 5.71998C256.607 9.19998 263.567 12.68 267.82 16.16C290.247 5.71998 314.027 0.499979 339.16 0.499979V-0.0800133C362.36 0.69331 387.88 8.23331 415.72 22.54C421.907 25.6333 443.753 38.5867 481.26 61.4C504.073 75.32 521.087 82.28 532.3 82.28H543.32C578.507 82.28 610.213 74.74 638.44 59.66C653.52 51.54 680.007 32.4 717.9 2.23999H720.22V2.81998L721.96 6.29997ZM256.8 62.56C256.8 60.6266 256.413 57.34 255.64 52.7C254.867 48.06 254.673 44.3866 255.06 41.68C214.847 58.6933 185.653 90.5933 167.48 137.38C164.773 144.34 163.42 149.56 163.42 153.04C163.42 162.32 168.447 166.96 178.5 166.96C198.22 166.96 216.587 154.2 233.6 128.68C249.067 105.48 256.8 83.44 256.8 62.56ZM390.526 311.38C390.526 316.02 384.92 319.693 373.706 322.4C364.813 324.72 357.08 325.88 350.506 325.88C346.253 325.88 342 325.493 337.746 324.72C323.053 352.56 305.653 377.887 285.546 400.7C257.706 432.02 232.766 447.68 210.726 447.68C180.18 447.68 164.906 433.76 164.906 405.92C164.906 371.893 181.726 333.613 215.366 291.08C250.553 247 284.773 224.96 318.026 224.96C344.32 224.96 357.466 237.14 357.466 261.5C357.466 269.62 353.213 285.473 344.706 309.06C348.573 310.22 352.053 310.8 355.146 310.8C358.24 310.8 362.88 310.22 369.066 309.06C375.253 307.9 379.893 307.32 382.986 307.32C388.013 307.32 390.526 308.673 390.526 311.38ZM341.226 264.98C341.226 252.22 336.2 245.84 326.146 245.84C318.8 245.84 310.68 249.32 301.786 256.28C292.893 263.24 288.446 270.393 288.446 277.74C288.446 285.087 292.313 292.047 300.046 298.62C308.166 305.193 316.093 308.48 323.826 308.48C324.6 308.48 325.566 308.287 326.726 307.9V307.32C330.206 307.32 333.686 301.133 337.166 288.76C339.873 278.707 341.226 270.78 341.226 264.98ZM320.926 321.82C299.66 319.5 284.58 309.06 275.686 290.5C269.113 298.233 259.446 314.86 246.686 340.38V339.8C245.913 344.053 242.82 352.173 237.406 364.16C232.766 374.213 230.446 382.527 230.446 389.1C230.446 396.833 234.313 400.7 242.046 400.7C267.18 400.7 293.473 374.407 320.926 321.82ZM550.411 254.54C550.411 265.753 546.351 277.16 538.231 288.76C529.338 301.907 519.671 308.48 509.231 308.48C507.298 308.48 503.625 306.547 498.211 302.68C496.278 298.04 495.311 294.753 495.311 292.82C495.311 283.927 499.565 275.613 508.071 267.88C516.578 259.76 525.085 256.473 533.591 258.02C533.591 251.447 528.371 248.16 517.931 248.16C499.371 248.16 477.331 269.233 451.811 311.38C427.838 351.207 415.851 381.56 415.851 402.44C415.851 411.72 419.331 416.36 426.291 416.36C442.531 416.36 458.965 409.4 475.591 395.48C482.938 389.293 495.311 376.34 512.711 356.62C525.085 342.7 533.591 335.74 538.231 335.74C539.778 335.74 540.551 336.707 540.551 338.64C540.551 342.893 528.758 359.713 505.171 389.1C472.305 430.087 438.665 450.58 404.251 450.58C371.771 450.58 355.531 435.113 355.531 404.18C355.531 393.353 358.625 378.66 364.811 360.1C370.611 342.7 376.605 328.973 382.791 318.92C423.778 254.733 467.858 222.64 515.031 222.64C523.925 222.64 532.045 225.733 539.391 231.92C546.738 238.107 550.411 245.647 550.411 254.54ZM792.575 223.22C786.775 245.647 772.662 274.067 750.235 308.48C725.875 345.987 710.408 373.633 703.835 391.42L709.055 394.9C724.522 389.873 738.248 378.467 750.235 360.68C762.608 342.507 769.955 332.84 772.275 331.68H774.595C776.142 333.613 776.915 335.74 776.915 338.06C776.915 353.913 763.382 375.76 736.315 403.6C709.248 431.053 687.788 444.78 671.935 444.78C659.562 444.78 651.055 441.687 646.415 435.5C645.255 433.953 641.968 425.447 636.555 409.98C623.408 433.18 605.428 444.78 582.615 444.78C572.175 444.78 563.088 440.333 555.355 431.44C547.622 422.547 543.755 412.88 543.755 402.44C543.755 373.053 563.282 335.74 602.335 290.5C641.775 244.873 675.802 222.06 704.415 222.06C707.895 222.06 713.308 224.187 720.655 228.44C728.002 232.307 733.608 234.433 737.475 234.82C739.795 233.66 741.148 230.953 741.535 226.7C745.788 223.22 753.908 221.48 765.895 221.48C777.495 221.48 786.388 222.06 792.575 223.22ZM726.455 251.06C725.295 246.033 721.815 243.52 716.015 243.52C710.602 243.52 704.802 246.033 698.615 251.06V250.48C679.668 266.333 661.495 287.02 644.095 312.54C623.988 342.313 613.935 367.253 613.935 387.36C613.935 395.48 617.222 399.54 623.795 399.54C632.688 399.54 651.248 377.693 679.475 334C704.608 294.947 720.268 267.3 726.455 251.06ZM1594.79 6.29997C1594.41 18.6733 1580.87 37.04 1554.19 61.4C1505.09 106.64 1455.59 129.26 1405.71 129.26C1391.79 129.26 1380.39 128.487 1371.49 126.94C1360.28 125.007 1342.3 116.693 1317.55 102C1238.67 55.6 1188.02 32.4 1165.59 32.4C1153.99 32.4 1148.19 34.9133 1148.19 39.94C1148.19 42.26 1148.58 45.9333 1149.35 50.96C1150.51 55.9867 1151.09 59.66 1151.09 61.98C1151.09 90.5933 1140.85 118.047 1120.35 144.34C1098.7 172.18 1073.95 186.1 1046.11 186.1L1023.49 179.72L1014.79 159.42C1014.79 135.833 1025.81 110.12 1047.85 82.28C1070.28 54.44 1092.9 36.2666 1115.71 27.76C1107.98 24.6666 1102.76 23.12 1100.05 23.12C1064.09 23.12 1023.69 48.2533 978.832 98.52C945.579 135.64 916.965 176.82 892.992 222.06C864.765 274.647 850.652 316.6 850.652 347.92C850.652 388.133 865.732 408.24 895.892 408.24C925.665 408.24 953.892 392 980.572 359.52C1005.71 328.587 1018.27 297.847 1018.27 267.3C1018.27 262.66 1016.53 258.02 1013.05 253.38C1009.57 248.74 1005.71 246.42 1001.45 246.42C994.879 246.42 985.019 253.38 971.872 267.3L970.712 267.88C965.685 275.613 959.499 292.24 952.152 317.76C942.872 322.013 933.012 327.813 922.572 335.16L894.732 354.88H893.572C892.799 350.24 892.412 347.34 892.412 346.18C892.412 314.473 900.725 286.44 917.352 262.08C935.912 234.24 960.272 220.32 990.432 220.32C1020.59 220.32 1035.67 234.433 1035.67 262.66C1035.67 305.967 1018.47 346.953 984.052 385.62C948.865 425.447 910.005 445.36 867.472 445.36C805.992 445.36 775.252 418.1 775.252 363.58C775.252 314.087 794.392 258.987 832.672 198.28C866.312 144.92 905.365 100.26 949.832 64.3C1002.42 21.7666 1051.53 0.499979 1097.15 0.499979C1102.57 0.499979 1110.11 2.23998 1119.77 5.71998C1129.44 9.19998 1136.4 12.68 1140.65 16.16C1163.08 5.71998 1186.86 0.499979 1211.99 0.499979V-0.0800133C1235.19 0.69331 1260.71 8.23331 1288.55 22.54C1294.74 25.6333 1316.59 38.5867 1354.09 61.4C1376.91 75.32 1393.92 82.28 1405.13 82.28H1416.15C1451.34 82.28 1483.05 74.74 1511.27 59.66C1526.35 51.54 1552.84 32.4 1590.73 2.23999H1593.05V2.81998L1594.79 6.29997ZM1129.63 62.56C1129.63 60.6266 1129.25 57.34 1128.47 52.7C1127.7 48.06 1127.51 44.3866 1127.89 41.68C1087.68 58.6933 1058.49 90.5933 1040.31 137.38C1037.61 144.34 1036.25 149.56 1036.25 153.04C1036.25 162.32 1041.28 166.96 1051.33 166.96C1071.05 166.96 1089.42 154.2 1106.43 128.68C1121.9 105.48 1129.63 83.44 1129.63 62.56ZM1263.36 311.38C1263.36 316.02 1257.75 319.693 1246.54 322.4C1237.64 324.72 1229.91 325.88 1223.34 325.88C1219.08 325.88 1214.83 325.493 1210.58 324.72C1195.88 352.56 1178.48 377.887 1158.38 400.7C1130.54 432.02 1105.6 447.68 1083.56 447.68C1053.01 447.68 1037.74 433.76 1037.74 405.92C1037.74 371.893 1054.56 333.613 1088.2 291.08C1123.38 247 1157.6 224.96 1190.86 224.96C1217.15 224.96 1230.3 237.14 1230.3 261.5C1230.3 269.62 1226.04 285.473 1217.54 309.06C1221.4 310.22 1224.88 310.8 1227.98 310.8C1231.07 310.8 1235.71 310.22 1241.9 309.06C1248.08 307.9 1252.72 307.32 1255.82 307.32C1260.84 307.32 1263.36 308.673 1263.36 311.38ZM1214.06 264.98C1214.06 252.22 1209.03 245.84 1198.98 245.84C1191.63 245.84 1183.51 249.32 1174.62 256.28C1165.72 263.24 1161.28 270.393 1161.28 277.74C1161.28 285.087 1165.14 292.047 1172.88 298.62C1181 305.193 1188.92 308.48 1196.66 308.48C1197.43 308.48 1198.4 308.287 1199.56 307.9V307.32C1203.04 307.32 1206.52 301.133 1210 288.76C1212.7 278.707 1214.06 270.78 1214.06 264.98ZM1193.76 321.82C1172.49 319.5 1157.41 309.06 1148.52 290.5C1141.94 298.233 1132.28 314.86 1119.52 340.38V339.8C1118.74 344.053 1115.65 352.173 1110.24 364.16C1105.6 374.213 1103.28 382.527 1103.28 389.1C1103.28 396.833 1107.14 400.7 1114.88 400.7C1140.01 400.7 1166.3 374.407 1193.76 321.82ZM1543.88 27.76C1543.88 41.2933 1539.44 55.7933 1530.54 71.26C1493.42 136.607 1438.9 200.6 1366.98 263.24C1354.61 273.68 1336.05 289.147 1311.3 309.64C1305.89 314.28 1299.9 326.847 1293.32 347.34C1287.52 366.287 1284.43 380.593 1284.04 390.26L1290.42 404.18C1291.97 404.567 1292.94 404.76 1293.32 404.76C1301.44 404.76 1313.24 395.673 1328.7 377.5C1344.17 359.327 1354.22 350.24 1358.86 350.24C1360.8 350.24 1361.76 351.207 1361.76 353.14C1361.76 357.78 1353.26 370.153 1336.24 390.26C1302.22 430.473 1277.47 450.58 1262 450.58C1252.34 450.58 1244.22 447.1 1237.64 440.14C1231.46 432.793 1228.36 424.287 1228.36 414.62C1228.36 390.647 1235.13 360.487 1248.66 324.14C1273.41 257.633 1310.14 192.287 1358.86 128.1C1419.57 48.06 1471 8.03999 1513.14 8.03999C1533.64 8.03999 1543.88 14.6133 1543.88 27.76ZM1526.48 38.78C1522.23 31.0466 1518.94 27.18 1516.62 27.18C1490.72 27.18 1452.63 63.72 1402.36 136.8C1359.83 198.667 1331.6 248.74 1317.68 287.02C1349.78 265.753 1390.18 227.667 1438.9 172.76C1492.65 112.44 1521.84 67.78 1526.48 38.78ZM1613.86 223.22C1608.06 245.647 1593.95 274.067 1571.52 308.48C1547.16 345.987 1531.7 373.633 1525.12 391.42L1530.34 394.9C1545.81 389.873 1559.54 378.467 1571.52 360.68C1583.9 342.507 1591.24 332.84 1593.56 331.68H1595.88C1597.43 333.613 1598.2 335.74 1598.2 338.06C1598.2 353.913 1584.67 375.76 1557.6 403.6C1530.54 431.053 1509.08 444.78 1493.22 444.78C1480.85 444.78 1472.34 441.687 1467.7 435.5C1466.54 433.953 1463.26 425.447 1457.84 409.98C1444.7 433.18 1426.72 444.78 1403.9 444.78C1393.46 444.78 1384.38 440.333 1376.64 431.44C1368.91 422.547 1365.04 412.88 1365.04 402.44C1365.04 373.053 1384.57 335.74 1423.62 290.5C1463.06 244.873 1497.09 222.06 1525.7 222.06C1529.18 222.06 1534.6 224.187 1541.94 228.44C1549.29 232.307 1554.9 234.433 1558.76 234.82C1561.08 233.66 1562.44 230.953 1562.82 226.7C1567.08 223.22 1575.2 221.48 1587.18 221.48C1598.78 221.48 1607.68 222.06 1613.86 223.22ZM1547.74 251.06C1546.58 246.033 1543.1 243.52 1537.3 243.52C1531.89 243.52 1526.09 246.033 1519.9 251.06V250.48C1500.96 266.333 1482.78 287.02 1465.38 312.54C1445.28 342.313 1435.22 367.253 1435.22 387.36C1435.22 395.48 1438.51 399.54 1445.08 399.54C1453.98 399.54 1472.54 377.693 1500.76 334C1525.9 294.947 1541.56 267.3 1547.74 251.06Z" fill="#D31519"/>
</svg>
